<?xml version="1.0" encoding="UTF-8"?>
<svg xmlns="http://www.w3.org/2000/svg" xmlns:xlink="http://www.w3.org/1999/xlink" width="60px" height="60px" viewBox="0 0 60 60" version="1.1">
<g id="surface1"  stroke-width="2">
<path style="stroke: red; fill: red;" d="M 51.214844 8.785156 C 45.546875 3.121094 38.011719 0 30 0 C 21.988281 0 14.453125 3.121094 8.785156 8.785156 C 3.121094 14.453125 0 21.988281 0 30 C 0 38.011719 3.121094 45.546875 8.785156 51.214844 C 14.453125 56.878906 21.988281 60 30 60 C 38.011719 60 45.546875 56.878906 51.214844 51.214844 C 56.878906 45.546875 60 38.011719 60 30 C 60 21.988281 56.878906 14.453125 51.214844 8.785156 Z M 30 56.289062 C 15.503906 56.289062 3.710938 44.496094 3.710938 30 C 3.710938 15.503906 15.503906 3.710938 30 3.710938 C 44.496094 3.710938 56.289062 15.503906 56.289062 30 C 56.289062 44.496094 44.496094 56.289062 30 56.289062 Z M 30 56.289062 "/>
<path style="stroke: red; fill: red;" d="M 17.320312 17.320312 L 42.679688 17.320312 L 42.679688 42.679688 L 17.320312 42.679688 Z M 17.320312 17.320312 "/>
</g>
</svg>
